<svg version="1.1" xmlns="http://www.w3.org/2000/svg" xmlns:xlink="http://www.w3.org/1999/xlink" x="0px" y="0px"
     viewBox="0 0 1000 1000" enable-background="new 0 0 1000 1000" xml:space="preserve">
<g transform="translate(0.000000,511.000000) scale(0.100000,-0.100000)"><path d="M9496.2,3063.9c-15.8-5.9-384-184.1-817.5-393.9l-791.8-384L7578,2392.8c-950.2,326.6-2036.9,483-2961.3,429.6C3520,2757.1,2530.2,2511.6,1667.1,2088C914.9,1719.8,449.7,1318,222.1,836.9C-104.5,148.1,236-649.7,1103-1225.7c641.4-425.6,1393.6-690.9,2480.3-873l73.2-11.9v-322.7c0-289,4-328.6,37.6-370.2l37.6-47.5h1268.9c1189.7,0,1268.9,2,1302.5,35.6c29.7,29.7,37.6,83.2,45.5,374.1l9.9,340.5l257.3,43.6c364.2,63.3,647.3,132.6,983.8,239.5l291,91.1l698.8-332.5c384-184.1,752.2-358.3,819.5-390c104.9-49.5,128.7-53.4,182.1-33.6c35.6,11.9,73.2,37.6,83.1,57.4c11.9,23.7,19.8,415.7,19.8,1017.5c0,934.3,2,981.9,37.6,1045.2c21.8,35.7,67.3,150.4,102.9,253.4C9892.1,57,9900,104.5,9900,296.5c0,245.5-27.7,368.2-138.6,587.9l-67.3,134.6v977.9c0,902.7-2,979.9-33.7,1017.5C9622.9,3059.9,9543.7,3083.7,9496.2,3063.9z M9397.2,2028.6c0-348.4-4-633.4-11.9-633.4c-6,0-71.3,53.5-146.5,118.8c-190,162.3-459.3,338.5-740.4,487L8259,2125.6l188.1,89.1c102.9,47.5,352.4,168.3,554.3,267.2c201.9,97,372.1,178.2,382.1,180.1C9391.2,2662.1,9397.2,2377,9397.2,2028.6z M5794.4,2474c1833-221.7,3428.5-1007.6,3739.3-1841c47.5-126.7,51.5-156.4,17.8-142.5c-772,346.4-1435.2,572.1-2171.6,736.4c-2258.6,502.8-4493.5,326.6-6601.7-516.7C604.1,641,459.6,585.5,455.7,589.5c-4,4,29.7,81.2,75.2,170.2c97,196,344.4,465.2,591.9,647.3c768.1,562.2,2017.1,975.9,3305.8,1096.7C4701.8,2529.4,5483.7,2511.6,5794.4,2474z M5576.7,1177.4c1346.1-93,2684.2-425.6,3767-934.3c116.8-55.4,211.8-106.9,211.8-114.8c0-19.8-554.3-239.5-768-304.8C8167.9-370.6,7508.7-479.5,6705-525c-554.3-31.7-2167.6-25.8-2563.5,9.9c-835.4,73.2-1617.3,219.7-2415,455.3c-336.5,99-809.6,261.3-999.7,342.4l-85.1,35.6l225.7,93c1068.9,435.5,2187.4,688.9,3422.6,772C4513.7,1199.2,5317.4,1195.2,5576.7,1177.4z M671.5-32.1c722.5-287,1609.4-530.5,2450.6-669.1c748.3-122.7,1247.1-160.3,2197.3-160.3c1447,0,2228.9,63.3,3008.9,239.5c263.3,61.4,791.8,221.7,960.1,295c110.8,47.5,130.6,21.8,57.4-75.2c-560.2-742.3-1809.3-1262.9-3452.3-1443.1c-382.1-41.6-1356-45.5-1732.1-7.9C2698.5-1708.7,1560.3-1297,911-675.4c-100.9,97-227.6,241.5-281.1,320.7C519-192.4,418.1,49.1,459.6,49.1C463.6,49.1,560.6,13.4,671.5-32.1z M9397.2-1465.3c0-342.5-4-623.6-11.9-623.6c-6,0-180.2,81.2-390,180.1c-209.8,101-455.3,215.8-546.4,259.3l-168.3,77.2l223.7,118.8c267.2,140.5,582,352.4,744.3,500.8c65.3,59.4,124.7,108.9,134.6,110.9C9391.2-841.7,9397.2-1122.8,9397.2-1465.3z M4973-2177.9c348.4,0,734.4,7.9,857.1,15.8l221.7,17.8v-199.9v-199.9H5002.7H3953.5v197.9v197.9l194-13.9C4252.4-2172,4624.6-2177.9,4973-2177.9z"/></g>
</svg>